<svg width="32" height="32" viewBox="0 0 32 32" fill="none" xmlns="http://www.w3.org/2000/svg">
<path d="M28.9621 28.0025L26.2962 20.0075H17.3372C16.9836 20.0075 16.6446 19.8671 16.3946 19.6172C16.1446 19.3673 16.0042 19.0284 16.0042 18.675V17.3425H25.3351V14.6775H16.0042V10.4908C17.2607 10.1664 18.3558 9.39514 19.0842 8.32144C19.8125 7.24774 20.1242 5.94535 19.9606 4.6584C19.7971 3.37145 19.1697 2.1883 18.1959 1.33072C17.2222 0.473135 15.9689 0 14.6712 0C13.3734 0 12.1202 0.473135 11.1465 1.33072C10.1727 2.1883 9.54526 3.37145 9.38174 4.6584C9.21822 5.94535 9.52984 7.24774 10.2582 8.32144C10.9866 9.39514 12.0816 10.1664 13.3382 10.4908V18.675C13.3382 19.7352 13.7595 20.752 14.5095 21.5017C15.2594 22.2513 16.2766 22.6725 17.3372 22.6725H18.5502C18.296 24.1758 17.6171 25.5751 16.5935 26.7054C15.5699 27.8358 14.2444 28.65 12.7732 29.052C11.302 29.4541 9.74645 29.4272 8.29 28.9746C6.83355 28.5221 5.53692 27.6626 4.553 26.4976C3.56908 25.3327 2.9389 23.9108 2.73676 22.3996C2.53462 20.8884 2.76896 19.3509 3.41214 17.9685C4.05532 16.586 5.08052 15.4162 6.36686 14.5971C7.65319 13.7779 9.14703 13.3434 10.6722 13.345V10.68C8.61964 10.6784 6.6102 11.269 4.88511 12.3809C3.16003 13.4928 1.79261 15.0787 0.946998 16.9484C0.101386 18.818 -0.186483 20.8919 0.117945 22.921C0.422373 24.9502 1.30616 26.8484 2.66322 28.3878C4.02028 29.9272 5.79294 31.0424 7.76843 31.5995C9.74391 32.1567 11.8383 32.132 13.8001 31.5286C15.7619 30.9251 17.5078 29.7685 18.8283 28.1976C20.1487 26.6267 20.9876 24.7082 21.2441 22.6725H24.374L27.04 30.6675H32V28.0025H28.9621ZM12.0052 5.34997C12.0052 4.82288 12.1616 4.30763 12.4545 3.86938C12.7475 3.43112 13.1638 3.08954 13.651 2.88783C14.1381 2.68612 14.6741 2.63335 15.1913 2.73618C15.7084 2.83901 16.1835 3.09282 16.5563 3.46553C16.9292 3.83824 17.1831 4.3131 17.2859 4.83006C17.3888 5.34702 17.336 5.88286 17.1342 6.36982C16.9324 6.85679 16.5907 7.27301 16.1523 7.56584C15.7139 7.85867 15.1985 8.01497 14.6712 8.01497C13.9641 8.01497 13.286 7.7342 12.7861 7.23441C12.2861 6.73463 12.0052 6.05677 12.0052 5.34997Z" fill="#0C4BA0"/>
</svg>
