<svg width="32" height="32" viewBox="0 0 32 32" fill="none" xmlns="http://www.w3.org/2000/svg">
<g clip-path="url(#clip0_430_1109)">
<path d="M12 16C13.5822 16 15.129 15.5308 16.4446 14.6518C17.7602 13.7727 18.7855 12.5233 19.391 11.0615C19.9965 9.59966 20.155 7.99113 19.8463 6.43928C19.5376 4.88743 18.7757 3.46197 17.6569 2.34315C16.538 1.22433 15.1126 0.462403 13.5607 0.153721C12.0089 -0.15496 10.4003 0.00346629 8.93853 0.608967C7.47672 1.21447 6.22729 2.23985 5.34824 3.55544C4.46919 4.87104 4 6.41775 4 8C4.00212 10.1211 4.84565 12.1547 6.34548 13.6545C7.84532 15.1544 9.87892 15.9979 12 16ZM12 2.66667C13.0548 2.66667 14.086 2.97947 14.963 3.5655C15.8401 4.15153 16.5237 4.98449 16.9274 5.95903C17.331 6.93357 17.4366 8.00592 17.2309 9.04049C17.0251 10.0751 16.5171 11.0254 15.7712 11.7712C15.0254 12.5171 14.075 13.0251 13.0405 13.2309C12.0059 13.4366 10.9336 13.331 9.95902 12.9274C8.98448 12.5237 8.15153 11.8401 7.5655 10.963C6.97946 10.086 6.66667 9.05484 6.66667 8C6.66667 6.58552 7.22857 5.22896 8.22876 4.22877C9.22896 3.22857 10.5855 2.66667 12 2.66667Z" fill="#319B17"/>
<path d="M12 18.666C8.81859 18.6699 5.7686 19.9354 3.51901 22.185C1.26941 24.4346 0.00388127 27.4846 0 30.666C0 31.0196 0.140476 31.3587 0.390524 31.6088C0.640573 31.8588 0.979711 31.9993 1.33333 31.9993C1.68696 31.9993 2.02609 31.8588 2.27614 31.6088C2.52619 31.3587 2.66667 31.0196 2.66667 30.666C2.66667 28.1906 3.65 25.8167 5.40034 24.0663C7.15068 22.316 9.52465 21.3327 12 21.3327C14.4754 21.3327 16.8493 22.316 18.5997 24.0663C20.35 25.8167 21.3333 28.1906 21.3333 30.666C21.3333 31.0196 21.4738 31.3587 21.7239 31.6088C21.9739 31.8588 22.313 31.9993 22.6667 31.9993C23.0203 31.9993 23.3594 31.8588 23.6095 31.6088C23.8595 31.3587 24 31.0196 24 30.666C23.9961 27.4846 22.7306 24.4346 20.481 22.185C18.2314 19.9354 15.1814 18.6699 12 18.666Z" fill="#319B17"/>
<path d="M29.3332 10.5C28.5911 10.537 27.894 10.8664 27.3942 11.4161C26.8944 11.9658 26.6328 12.6911 26.6665 13.4333C26.7002 12.6911 26.4386 11.9658 25.9388 11.4161C25.439 10.8664 24.7419 10.537 23.9998 10.5C23.2578 10.537 22.5606 10.8664 22.0609 11.4161C21.5611 11.9658 21.2995 12.6911 21.3332 13.4333C21.3332 15.74 24.3412 18.4427 25.8398 19.6453C26.0744 19.8332 26.366 19.9355 26.6665 19.9355C26.967 19.9355 27.2586 19.8332 27.4932 19.6453C28.9918 18.4453 31.9998 15.74 31.9998 13.4333C32.0335 12.6911 31.7719 11.9658 31.2721 11.4161C30.7724 10.8664 30.0752 10.537 29.3332 10.5Z" fill="#319B17"/>
</g>
<defs>
<clipPath id="clip0_430_1109">
<rect width="32" height="32" fill="white"/>
</clipPath>
</defs>
</svg>
